<svg width="75" height="75" viewBox="0 0 75 75" fill="none" xmlns="http://www.w3.org/2000/svg">
<g id="Vector">
<path d="M46.416 5.22648C46.416 8.11299 44.0678 10.453 41.1712 10.453C38.2746 10.453 35.9265 8.11299 35.9265 5.22648C35.9265 2.33998 38.2746 0 41.1712 0C44.0678 0 46.416 2.33998 46.416 5.22648Z" fill="#BDD3DB"/>
<path d="M54.0209 14.6341C56.9175 14.6341 59.2657 12.2942 59.2657 9.40765C59.2657 6.52114 56.9175 4.18117 54.0209 4.18117C51.1243 4.18117 48.7762 6.52114 48.7762 9.40765C48.7762 12.2942 51.1243 14.6341 54.0209 14.6341Z" fill="#BDD3DB"/>
<path d="M69.2309 18.2927C69.2309 21.1792 66.8827 23.5192 63.9861 23.5192C61.0895 23.5192 58.7414 21.1792 58.7414 18.2927C58.7414 15.4062 61.0895 13.0662 63.9861 13.0662C66.8827 13.0662 69.2309 15.4062 69.2309 18.2927Z" fill="#BDD3DB"/>
<path d="M25.4371 30.5749C28.3337 30.5749 30.6818 28.2349 30.6818 25.3484C30.6818 22.4619 28.3337 20.1219 25.4371 20.1219C22.5405 20.1219 20.1923 22.4619 20.1923 25.3484C20.1923 28.2349 22.5405 30.5749 25.4371 30.5749Z" fill="#BDD3DB"/>
<path d="M37.7623 42.8571C40.6589 42.8571 43.0071 40.5171 43.0071 37.6306C43.0071 34.7441 40.6589 32.4042 37.7623 32.4042C34.8657 32.4042 32.5176 34.7441 32.5176 37.6306C32.5176 40.5171 34.8657 42.8571 37.7623 42.8571Z" fill="#BDD3DB"/>
<path d="M55.3322 25.3484C55.3322 28.2349 52.984 30.5749 50.0874 30.5749C47.1908 30.5749 44.8427 28.2349 44.8427 25.3484C44.8427 22.4619 47.1908 20.1219 50.0874 20.1219C52.984 20.1219 55.3322 22.4619 55.3322 25.3484Z" fill="#BDD3DB"/>
<path d="M50.0874 55.1394C52.984 55.1394 55.3322 52.7994 55.3322 49.9129C55.3322 47.0264 52.984 44.6864 50.0874 44.6864C47.1908 44.6864 44.8427 47.0264 44.8427 49.9129C44.8427 52.7994 47.1908 55.1394 50.0874 55.1394Z" fill="#BDD3DB"/>
<path d="M30.6818 49.9129C30.6818 52.7994 28.3337 55.1394 25.4371 55.1394C22.5405 55.1394 20.1923 52.7994 20.1923 49.9129C20.1923 47.0264 22.5405 44.6864 25.4371 44.6864C28.3337 44.6864 30.6818 47.0264 30.6818 49.9129Z" fill="#BDD3DB"/>
<path d="M41.1712 75C44.0678 75 46.416 72.66 46.416 69.7735C46.416 66.887 44.0678 64.547 41.1712 64.547C38.2746 64.547 35.9265 66.887 35.9265 69.7735C35.9265 72.66 38.2746 75 41.1712 75Z" fill="#BDD3DB"/>
<path d="M59.5279 65.5923C59.5279 68.4788 57.1797 70.8188 54.2831 70.8188C51.3865 70.8188 49.0384 68.4788 49.0384 65.5923C49.0384 62.7058 51.3865 60.3658 54.2831 60.3658C57.1797 60.3658 59.5279 62.7058 59.5279 65.5923Z" fill="#BDD3DB"/>
<path d="M63.9861 61.9338C66.8827 61.9338 69.2309 59.5938 69.2309 56.7073C69.2309 53.8208 66.8827 51.4808 63.9861 51.4808C61.0895 51.4808 58.7414 53.8208 58.7414 56.7073C58.7414 59.5938 61.0895 61.9338 63.9861 61.9338Z" fill="#BDD3DB"/>
<path d="M75 44.4251C75 47.3116 72.6518 49.6516 69.7552 49.6516C66.8587 49.6516 64.5105 47.3116 64.5105 44.4251C64.5105 41.5386 66.8587 39.1986 69.7552 39.1986C72.6518 39.1986 75 41.5386 75 44.4251Z" fill="#BDD3DB"/>
<path d="M69.7552 35.8014C72.6518 35.8014 75 33.4614 75 30.5749C75 27.6884 72.6518 25.3484 69.7552 25.3484C66.8587 25.3484 64.5105 27.6884 64.5105 30.5749C64.5105 33.4614 66.8587 35.8014 69.7552 35.8014Z" fill="#BDD3DB"/>
<path d="M27.535 12.0209C30.4316 12.0209 32.7797 9.68093 32.7797 6.79443C32.7797 3.90792 30.4316 1.56795 27.535 1.56795C24.6384 1.56795 22.2902 3.90792 22.2902 6.79443C22.2902 9.68093 24.6384 12.0209 27.535 12.0209Z" fill="#BDD3DB"/>
<path d="M21.2413 13.3275C21.2413 16.214 18.8931 18.554 15.9965 18.554C13.0999 18.554 10.7518 16.214 10.7518 13.3275C10.7518 10.441 13.0999 8.10105 15.9965 8.10105C18.8931 8.10105 21.2413 10.441 21.2413 13.3275Z" fill="#BDD3DB"/>
<path d="M8.1293 29.2683C11.0259 29.2683 13.3741 26.9283 13.3741 24.0418C13.3741 21.1553 11.0259 18.8153 8.1293 18.8153C5.23271 18.8153 2.88455 21.1553 2.88455 24.0418C2.88455 26.9283 5.23271 29.2683 8.1293 29.2683Z" fill="#BDD3DB"/>
<path d="M10.4895 37.6306C10.4895 40.5171 8.14135 42.8571 5.24475 42.8571C2.34816 42.8571 0 40.5171 0 37.6306C0 34.7441 2.34816 32.4042 5.24475 32.4042C8.14135 32.4042 10.4895 34.7441 10.4895 37.6306Z" fill="#BDD3DB"/>
<path d="M8.1293 56.446C11.0259 56.446 13.3741 54.106 13.3741 51.2195C13.3741 48.333 11.0259 45.993 8.1293 45.993C5.23271 45.993 2.88455 48.333 2.88455 51.2195C2.88455 54.106 5.23271 56.446 8.1293 56.446Z" fill="#BDD3DB"/>
<path d="M21.2413 61.6725C21.2413 64.559 18.8931 66.8989 15.9965 66.8989C13.0999 66.8989 10.7518 64.559 10.7518 61.6725C10.7518 58.786 13.0999 56.446 15.9965 56.446C18.8931 56.446 21.2413 58.786 21.2413 61.6725Z" fill="#BDD3DB"/>
<path d="M27.535 73.6934C30.4316 73.6934 32.7797 71.3534 32.7797 68.4669C32.7797 65.5804 30.4316 63.2404 27.535 63.2404C24.6384 63.2404 22.2902 65.5804 22.2902 68.4669C22.2902 71.3534 24.6384 73.6934 27.535 73.6934Z" fill="#BDD3DB"/>
<path d="M43.0071 54.878C43.0071 57.7645 40.6589 60.1045 37.7623 60.1045C34.8657 60.1045 32.5176 57.7645 32.5176 54.878C32.5176 51.9915 34.8657 49.6516 37.7623 49.6516C40.6589 49.6516 43.0071 51.9915 43.0071 54.878Z" fill="#BDD3DB"/>
<path d="M55.0698 42.8571C57.9664 42.8571 60.3146 40.5171 60.3146 37.6306C60.3146 34.7441 57.9664 32.4042 55.0698 32.4042C52.1732 32.4042 49.8251 34.7441 49.8251 37.6306C49.8251 40.5171 52.1732 42.8571 55.0698 42.8571Z" fill="#BDD3DB"/>
<path d="M43.0071 20.3833C43.0071 23.2698 40.6589 25.6098 37.7623 25.6098C34.8657 25.6098 32.5176 23.2698 32.5176 20.3833C32.5176 17.4968 34.8657 15.1568 37.7623 15.1568C40.6589 15.1568 43.0071 17.4968 43.0071 20.3833Z" fill="#BDD3DB"/>
<path d="M20.4545 42.8571C23.3511 42.8571 25.6992 40.5171 25.6992 37.6306C25.6992 34.7441 23.3511 32.4042 20.4545 32.4042C17.5579 32.4042 15.2097 34.7441 15.2097 37.6306C15.2097 40.5171 17.5579 42.8571 20.4545 42.8571Z" fill="#BDD3DB"/>
</g>
</svg>
