<svg width="150" height="150" viewBox="0 0 150 150" fill="none" xmlns="http://www.w3.org/2000/svg">
<g id="A1" clip-path="url(#clip0_13_2658)">
<path id="Vector" fill-rule="evenodd" clip-rule="evenodd" d="M80.3572 0H69.6428V47.4398L51.8716 3.45437L41.9375 7.46801L60.1691 52.5929L25.7551 18.1789L18.1789 25.7551L51.1633 58.7393L8.41808 40.0636L4.12844 49.8817L49.3579 69.6428H0V80.3572H49.3578L4.12846 100.118L8.41808 109.937L51.1632 91.2607L18.1789 124.245L25.7551 131.821L60.1691 97.407L41.9375 142.532L51.8716 146.546L69.6428 102.56V150H80.3572V102.56L98.1285 146.546L108.062 142.532L89.8313 97.407L124.245 131.821L131.821 124.245L98.8365 91.2607L141.582 109.937L145.871 100.118L100.643 80.3572H150V69.6428H100.642L145.871 49.8817L141.582 40.0636L98.8365 58.7393L131.821 25.755L124.245 18.1789L89.8313 52.5928L108.062 7.46801L98.1285 3.45437L80.3572 47.4398V0Z" fill="#0F0F0F"/>
</g>
<defs>
<clipPath id="clip0_13_2658">
<rect width="150" height="150" fill="white"/>
</clipPath>
</defs>
</svg>
